Coordinates
version=1
nRows=54
nColumns=12
inDegrees=yes

Units are S.I. units (second, meters, Newtons, ...)
Angles are in degrees

endheader
time	SC_y	SC_z	SC_x	AC_y	AC_z	AC_x	GH_y	GH_z	GH_yy	EL_x	PS_y
       0.0              -58.37          2.197          11.94          63.58          8.245         -10.44         -39.36           14.0          78.63          93.08           31.0
  0.001098              -58.36          2.199          11.94          63.58          8.244         -10.44         -39.36           14.0           78.6          93.09          31.01
  0.002197              -58.36          2.202          11.95          63.58          8.242         -10.44         -39.36           14.0          78.56          93.09          31.02
  0.003295              -58.35          2.204          11.97          63.58           8.24         -10.43         -39.36           14.0          78.52           93.1          31.03
  0.004393              -58.34          2.207          11.98          63.58          8.238         -10.43         -39.36           14.0          78.47          93.11          31.04
  0.005492              -58.33           2.21          11.99          63.58          8.236         -10.43         -39.35           14.0          78.43          93.12          31.06
   0.00659              -58.32          2.214           12.0          63.58          8.233         -10.42         -39.35           14.0          78.38          93.12          31.07
  0.007688              -58.31          2.217          12.01          63.58          8.231         -10.42         -39.35          14.01          78.33          93.13          31.09
  0.008787               -58.3          2.221          12.03          63.58          8.228         -10.41         -39.35          14.01          78.27          93.14          31.11
  0.009885              -58.29          2.225          12.04          63.58          8.226         -10.41         -39.35          14.01          78.21          93.15          31.12
   0.01098              -58.28          2.229          12.06          63.57          8.222         -10.41         -39.34          14.01          78.14          93.16          31.14
   0.01208              -58.27          2.234          12.08          63.57          8.219          -10.4         -39.34          14.01          78.07          93.17          31.16
   0.01318              -58.25          2.238           12.1          63.57          8.216         -10.39         -39.34          14.01           78.0          93.19          31.19
   0.01428              -58.24          2.244          12.12          63.57          8.212         -10.39         -39.33          14.01          77.92           93.2          31.21
   0.01538              -58.22           2.25          12.14          63.57          8.208         -10.38         -39.33          14.01          77.83          93.21          31.24
   0.01647               -58.2          2.256          12.17          63.57          8.203         -10.37         -39.33          14.01          77.73          93.23          31.27
   0.01757              -58.19          2.263          12.19          63.57          8.198         -10.37         -39.32          14.02          77.63          93.25           31.3
   0.01867              -58.16           2.27          12.22          63.56          8.193         -10.36         -39.32          14.02          77.51          93.27          31.33
   0.01977              -58.14          2.278          12.26          63.56          8.187         -10.35         -39.31          14.02          77.39          93.29          31.37
   0.02087              -58.12          2.287          12.29          63.56          8.181         -10.34         -39.31          14.02          77.25          93.31          31.41
   0.02197              -58.09          2.297          12.33          63.56          8.174         -10.33          -39.3          14.02           77.1          93.33          31.45
   0.02306              -58.06          2.308          12.37          63.55          8.166         -10.32          -39.3          14.03          76.94          93.36           31.5
   0.02416              -58.03           2.32          12.42          63.55          8.158          -10.3         -39.29          14.03          76.76          93.39          31.56
   0.02526              -57.99          2.333          12.47          63.55          8.148         -10.29         -39.28          14.03          76.56          93.42          31.62
   0.02636              -57.95          2.347          12.53          63.54          8.138         -10.27         -39.27          14.04          76.33          93.46          31.68
   0.02746               -57.9          2.364          12.59          63.54          8.126         -10.25         -39.26          14.04          76.09           93.5          31.76
   0.02856              -57.85          2.382          12.66          63.53          8.113         -10.23         -39.25          14.04          75.81          93.55          31.84
   0.02965              -57.79          2.403          12.74          63.53          8.099         -10.21         -39.24          14.05          75.49           93.6          31.94
   0.03075              -57.73          2.426          12.84          63.52          8.082         -10.18         -39.22          14.05          75.14          93.66          32.04
   0.03185              -57.65          2.452          12.94          63.52          8.063         -10.15         -39.21          14.06          74.73          93.72          32.16
   0.03295              -57.57          2.482          13.06          63.51          8.042         -10.12         -39.19          14.07          74.27           93.8           32.3
   0.03405              -57.47          2.517          13.19           63.5          8.017         -10.08         -39.17          14.07          73.75          93.89          32.46
   0.03515              -57.36          2.557          13.35          63.49          7.989         -10.03         -39.15          14.08          73.14          93.99          32.64
   0.03624              -57.23          2.603          13.53          63.48          7.955          -9.98         -39.12          14.09          72.43           94.1          32.85
   0.03734              -57.08          2.658          13.75          63.46          7.917         -9.918         -39.08          14.11           71.6          94.24           33.1
   0.03844               -56.9          2.722           14.0          63.44          7.871         -9.845         -39.05          14.12          70.63           94.4          33.39
   0.03954              -56.68          2.798           14.3          63.42          7.817         -9.758          -39.0          14.14          69.47          94.59          33.74
   0.04064              -56.43          2.889          14.66           63.4          7.752         -9.655         -38.95          14.16          68.08          94.82          34.15
   0.04174              -56.12          2.999          15.09          63.37          7.673         -9.529         -38.88          14.18          66.39           95.1          34.65
   0.04283              -55.74          3.134          15.62          63.33          7.577         -9.376          -38.8          14.21          64.34          95.44          35.27
   0.04393              -55.27            3.3          16.27          63.29          7.459         -9.187          -38.7          14.25           61.8          95.85          36.03
   0.04503              -54.69          3.507          17.09          63.24          7.311         -8.951         -38.57           14.3          58.64          96.38          36.97
   0.04613              -53.96          3.769          18.11          63.17          7.124         -8.654         -38.42          14.36          54.65          97.03          38.16
   0.04723              -53.03          4.101          19.42          63.08          6.888         -8.276         -38.21          14.44          49.59          97.87          39.67
   0.04833              -51.83          4.526          21.09          62.97          6.584         -7.792         -37.96          14.53           43.1          98.93          41.61
   0.04942               -50.3          5.071          23.23          62.82          6.196         -7.172         -37.63          14.66          34.78          100.3           44.1
   0.05052              -48.35          5.768          25.97          62.64          5.699         -6.379         -37.21          14.82          24.15          102.1          47.27
   0.05162              -45.89          6.643          29.42           62.4          5.074         -5.382         -36.68          15.02          10.79          104.3          51.26
   0.05272              -42.89          7.711          33.61          62.12          4.313         -4.168         -36.04          15.26         -5.495          106.9          56.13
   0.05382              -39.42          8.948          38.47          61.79           3.43          -2.76         -35.29          15.54         -24.37          110.0          61.76
   0.05492              -35.66          10.29          43.74          61.44          2.475         -1.236         -34.49          15.85         -44.81          113.4          67.87
   0.05601               -31.9          11.63          49.01          61.08          1.519         0.2887         -33.68          16.15         -65.25          116.8          73.98
   0.05711              -28.43          12.86          53.87          60.75         0.6369          1.696         -32.93          16.44         -84.13          119.9          79.61
   0.05821              -25.43          13.93          58.07          60.47        -0.1243          2.911         -32.29          16.68         -100.4          122.6          84.48
